<svg width="51" height="44" viewBox="0 0 51 44" fill="none" xmlns="http://www.w3.org/2000/svg">
<path d="M50.6355 15.2095C49.8699 15.1493 49.1043 15.0891 48.3938 14.9817C48.0875 14.9576 47.9264 15.0481 47.7531 15.2922C46.7646 16.7612 45.772 18.2814 44.7834 19.7503C44.6102 19.9945 44.445 20.1362 44.1428 20.0608C38.9569 19.3953 33.7751 18.6785 28.5892 18.0129C28.5382 18.0089 28.4871 18.0049 28.3891 17.9456C31.3023 12.2457 34.2626 6.60111 37.2349 0.802775C36.2141 0.722507 35.2403 0.697489 34.3297 0.522769C33.5171 0.407317 33.0376 0.62739 32.4748 1.25337C30.7194 3.33224 28.9169 5.35586 27.1654 7.38349C26.9371 7.67487 26.6738 7.75729 26.2655 7.72518C25.1467 7.58564 24.0238 7.49735 22.901 7.40905C22.7479 7.39701 22.5437 7.38096 22.3395 7.3649C22.2509 8.49217 22.1703 9.51695 22.0306 10.6402C22.6941 10.6924 23.3066 10.7405 24.0212 10.7967C23.8519 10.9896 23.7888 11.1393 23.6787 11.2338C22.1556 12.9701 20.6325 14.7063 19.1053 16.4938C18.881 16.7339 18.6688 16.8204 18.3626 16.7963C15.1981 16.5474 12.0377 16.2474 8.87329 15.9985C6.98483 15.85 5.07221 16.009 3.27643 16.6411C2.21536 17.0732 1.29934 17.6199 0.712393 18.5533C0.692248 18.8095 0.672102 19.0657 0.651956 19.3219C1.12072 20.5445 2.14419 21.2437 3.28183 21.7972C4.86271 22.5917 6.52686 22.9803 8.25816 23.168C11.4186 23.4681 14.5279 23.7642 17.6924 24.013C17.9986 24.0371 18.1947 24.1556 18.3787 24.4279C19.5567 26.4281 20.7897 28.381 22.0186 30.3852C22.1127 30.4958 22.1516 30.6535 22.2886 30.8705C21.5741 30.8143 20.9616 30.7661 20.2981 30.714C20.2094 31.8412 20.1289 32.866 19.9892 33.9893C20.9589 34.0655 21.9206 34.2442 22.8474 34.214C24.0293 34.2038 24.7117 34.6699 25.2986 35.6957C26.5585 37.9601 27.9325 40.0788 29.2475 42.296C29.4275 42.6195 29.6236 42.738 29.9808 42.7661C31.1547 42.8584 32.2776 42.9467 33.5536 43.0471C31.6221 36.9147 29.7417 30.7863 27.8102 24.6539C28.4778 24.6549 29.0902 24.703 29.7067 24.7C34.3634 24.9115 38.969 25.1189 43.6257 25.3305C43.9319 25.3545 44.128 25.4731 44.261 25.7413C44.9527 27.3939 45.6995 28.9993 46.3953 30.6007C46.5242 30.9202 46.7203 31.0387 47.0265 31.0628C47.7411 31.119 48.5067 31.1792 49.2212 31.2354C49.2293 31.1329 49.2373 31.0304 49.2454 30.928C49.1984 30.8727 49.2064 30.7702 49.1594 30.715C48.9633 28.6373 48.7632 26.6109 48.6181 24.5372C48.5684 23.8631 48.5227 23.1377 48.6812 22.4284C48.9431 21.057 49.3582 19.6976 49.7181 18.3854C49.9988 17.428 50.2795 16.4705 50.5643 15.4617C50.6193 15.4145 50.6274 15.312 50.6355 15.2095Z" fill="#EAE1FF"/>
</svg>
